<?xml version="1.0" encoding="UTF-8" standalone="no"?>
<!DOCTYPE svg PUBLIC "-//W3C//DTD SVG 1.1//EN" "http://www.w3.org/Graphics/SVG/1.1/DTD/svg11.dtd">
<svg width="100%" height="100%" viewBox="0 0 512 512" version="1.1" xmlns="http://www.w3.org/2000/svg" xmlns:xlink="http://www.w3.org/1999/xlink" xml:space="preserve" xmlns:serif="http://www.serif.com/" style="fill-rule:evenodd;clip-rule:evenodd;stroke-linejoin:round;stroke-miterlimit:2;">
    <g transform="matrix(0.625676,-0.625676,0.423105,0.423105,-59.3618,212.599)">
        <path d="M341.667,133.667C341.667,122.444 335.505,113.333 327.917,113.333L106.75,113.333C99.161,113.333 93,122.444 93,133.667L93,174.333C93,185.556 99.161,194.667 106.75,194.667L327.917,194.667C335.505,194.667 341.667,185.556 341.667,174.333L341.667,133.667Z" style="fill:rgb(235,235,235);"/>
    </g>
    <g transform="matrix(-0.625676,-0.625676,-0.423105,0.423105,571.362,212.599)">
        <path d="M341.667,133.667C341.667,122.444 335.505,113.333 327.917,113.333L106.75,113.333C99.161,113.333 93,122.444 93,133.667L93,174.333C93,185.556 99.161,194.667 106.75,194.667L327.917,194.667C335.505,194.667 341.667,185.556 341.667,174.333L341.667,133.667Z" style="fill:rgb(235,235,235);"/>
    </g>
    <g transform="matrix(0.625676,0.625676,0.423105,-0.423105,-59.3618,299.401)">
        <path d="M341.667,133.667C341.667,122.444 335.505,113.333 327.917,113.333L106.75,113.333C99.161,113.333 93,122.444 93,133.667L93,174.333C93,185.556 99.161,194.667 106.75,194.667L327.917,194.667C335.505,194.667 341.667,185.556 341.667,174.333L341.667,133.667Z" style="fill:rgb(235,235,235);"/>
    </g>
    <g transform="matrix(-0.625676,0.625676,-0.423105,-0.423105,571.362,299.401)">
        <path d="M341.667,133.667C341.667,122.444 335.505,113.333 327.917,113.333L106.75,113.333C99.161,113.333 93,122.444 93,133.667L93,174.333C93,185.556 99.161,194.667 106.75,194.667L327.917,194.667C335.505,194.667 341.667,185.556 341.667,174.333L341.667,133.667Z" style="fill:rgb(235,235,235);"/>
    </g>
    <g transform="matrix(1,0,0,1,-27.3584,117.498)">
        <g transform="matrix(400,0,0,400,209.133,234.4)">
            <path d="M0.239,-0.34L0.239,-0.354C0.24,-0.378 0.236,-0.395 0.228,-0.406C0.22,-0.417 0.207,-0.422 0.188,-0.422C0.172,-0.422 0.159,-0.418 0.15,-0.41C0.142,-0.402 0.138,-0.39 0.138,-0.375C0.138,-0.358 0.142,-0.345 0.15,-0.334C0.159,-0.324 0.179,-0.308 0.209,-0.287C0.259,-0.251 0.293,-0.223 0.31,-0.203C0.326,-0.182 0.334,-0.158 0.334,-0.131C0.334,-0.086 0.322,-0.051 0.296,-0.026C0.27,-0.002 0.233,0.01 0.186,0.01C0.134,0.01 0.097,-0.002 0.072,-0.025C0.048,-0.048 0.036,-0.08 0.037,-0.124L0.037,-0.146L0.125,-0.146L0.125,-0.132C0.123,-0.107 0.128,-0.088 0.138,-0.076C0.148,-0.063 0.164,-0.057 0.186,-0.057C0.206,-0.057 0.221,-0.062 0.231,-0.072C0.241,-0.082 0.246,-0.096 0.246,-0.116C0.246,-0.133 0.241,-0.148 0.229,-0.162C0.218,-0.176 0.195,-0.194 0.161,-0.218C0.117,-0.25 0.087,-0.275 0.072,-0.295C0.057,-0.315 0.05,-0.338 0.05,-0.366C0.05,-0.405 0.062,-0.436 0.086,-0.458C0.11,-0.479 0.144,-0.49 0.188,-0.49C0.238,-0.49 0.274,-0.479 0.296,-0.458C0.317,-0.437 0.327,-0.406 0.327,-0.364L0.327,-0.34L0.239,-0.34Z" style="fill:rgb(235,235,235);fill-rule:nonzero;"/>
        </g>
    </g>
</svg>
